<svg width="390" height="71" viewBox="0 0 390 71" fill="none" xmlns="http://www.w3.org/2000/svg">
<path d="M95.1673 40.7101H90.5064L89.056 46.0113H85.005L86.4554 40.7101H83.5879V37.0688H87.4689L88.5826 33.0148H84.7015V29.3734H89.5961L91.083 24.0723H95.1339L93.6471 29.3734H98.311L99.7948 24.0723H103.846L102.362 29.3734H105.263V33.0148H101.345L100.232 37.0688H104.146V40.7101H99.2213L97.7678 46.0113H93.7138L95.1673 40.7101ZM91.526 37.0688H96.1869L97.3005 33.0148H92.6336L91.526 37.0688Z" fill="#E06A1B"/>
<path d="M123.694 34.0254V34.6687L132.494 44.7613V46.0115H126.122L118.423 36.9082H116.229V46.0115H110.494V24.0664H116.232V32.1684H118.393L125.448 24.0664H131.386V25.3166L123.694 34.0254Z" fill="#E06A1B"/>
<path d="M135.331 29.13H141.002V30.7504C141.664 30.0951 142.45 29.5783 143.314 29.2303C144.178 28.8823 145.102 28.7099 146.034 28.7234C150.388 28.7234 153.562 32.1675 153.562 37.5688C153.562 42.9701 150.397 46.4111 146.043 46.4111C145.114 46.4309 144.19 46.265 143.326 45.9232C142.462 45.5814 141.675 45.0705 141.012 44.4206V51.242H135.331V29.13ZM140.793 37.5688C140.793 39.7657 142.177 41.0827 144.304 41.0827C146.431 41.0827 147.815 39.7657 147.815 37.5688C147.815 35.3718 146.431 34.0579 144.304 34.0579C142.177 34.0579 140.808 35.3749 140.808 37.5688H140.793Z" fill="#E06A1B"/>
<path d="M161.503 29.1309L165.218 38.9564H165.421L168.898 29.1309H174.333V30.2111L168.222 46.0782C166.905 49.4889 165.114 51.5706 159.14 51.5706V46.1692C160.423 46.1692 161.3 46.0995 161.871 45.8658L155.662 30.2111V29.1309H161.503Z" fill="#E06A1B"/>
<path d="M177.268 29.1309H190.131V34.3986H182.942V46.0115H177.268V29.1309Z" fill="#E06A1B"/>
<path d="M192.527 37.5681C192.527 32.1667 196.472 28.7227 201.846 28.7227C207.22 28.7227 211.165 32.1667 211.165 37.5681C211.165 42.9694 207.214 46.4104 201.846 46.4104C196.478 46.4104 192.527 42.9724 192.527 37.5681ZM198.265 37.5681C198.265 39.765 199.686 41.0819 201.846 41.0819C204.007 41.0819 205.427 39.765 205.427 37.5681C205.427 35.3711 204.01 34.0572 201.849 34.0572C199.689 34.0572 198.265 35.3742 198.265 37.5681Z" fill="#E06A1B"/>
<path d="M238.002 37.369V38.7861C236.722 43.0343 232.094 46.4147 226.186 46.4147C219.207 46.4147 214.066 41.9268 214.066 34.9051C214.066 27.8834 219.198 23.4258 226.186 23.4258C231.791 23.4258 236.485 26.2599 238.002 31.0544V32.4714H232.061C231.22 30.1107 229.096 28.7603 226.186 28.7603C222.405 28.7603 219.908 31.0544 219.908 34.9051C219.908 38.7558 222.405 41.0832 226.186 41.0832C229.09 41.0832 231.25 39.7329 232.094 37.369H238.002Z" fill="#E06A1B"/>
<path d="M241.949 29.1309H249.839C254.767 29.1309 258.381 30.8878 258.381 33.986C258.381 35.6397 257.267 36.717 255.847 37.3967V37.7001C257.234 38.2069 258.578 39.2871 258.578 40.9409C258.578 43.8782 255.407 46.0054 249.969 46.0054H241.949V29.1309ZM250.142 33.7553H247.608V36.0949H250.582C251.729 36.0949 252.403 35.6215 252.403 34.9479C252.415 34.1953 251.605 33.7887 250.154 33.7553H250.142ZM250.782 39.0565H247.621V41.387H250.221C251.808 41.387 252.649 40.9803 252.649 40.2035C252.652 39.5299 251.945 39.0565 250.795 39.0565H250.782Z" fill="#E06A1B"/>
<path d="M279.828 39.6629V40.7432C278.781 43.9506 275.237 46.4115 270.646 46.4115C265.278 46.4115 261.327 42.9704 261.327 37.5661C261.327 32.1618 265.272 28.7207 270.646 28.7207C275.44 28.7207 279.085 31.4517 279.828 35.879V38.3065H267.102C267.372 40.1636 268.722 41.2772 270.646 41.2772C272.03 41.2772 273.246 40.7705 273.887 39.6568L279.828 39.6629ZM267.439 35.3085H273.853C273.28 34.1281 272.233 33.4514 270.646 33.4514C269.15 33.4514 268.012 34.1281 267.439 35.3085Z" fill="#E06A1B"/>
<path d="M292.792 46.0115H287.12V34.3986H281.989V29.1309H297.89V34.3986H292.792V46.0115Z" fill="#E06A1B"/>
<path d="M307.882 39.6968H306.669V46.0115H300.994V29.1309H306.669V35.4455H307.816L312.643 29.1309H318.281V29.9077L312.44 37.4027L318.718 45.2346V46.0115H312.777L307.882 39.6968Z" fill="#E06A1B"/>
<path d="M338.502 46.0103H332.831V44.4233C332.165 45.0709 331.378 45.5803 330.515 45.9219C329.651 46.2636 328.728 46.4308 327.8 46.4139C323.446 46.4139 320.271 42.9728 320.271 37.5685C320.271 32.1642 323.446 28.7231 327.8 28.7231C328.731 28.7127 329.654 28.8864 330.518 29.2343C331.381 29.5821 332.167 30.0973 332.831 30.7501V29.1297H338.502V46.0103ZM333.04 37.5685C333.04 35.3746 331.654 34.0576 329.53 34.0576C327.405 34.0576 326.016 35.3746 326.016 37.5685C326.016 39.7624 327.402 41.0824 329.53 41.0824C331.657 41.0824 333.034 39.7654 333.034 37.5685H333.04Z" fill="#E06A1B"/>
<path d="M368.109 28.4208C363.972 33.7128 360.753 39.6622 358.587 46.0206H352.849C355.011 39.9487 358.073 34.2359 361.931 29.0732H349.438V24.0664H368.109V28.4208Z" fill="#3780C3"/>
<path d="M389.314 41.1503H386.477V46.0054H380.739V41.1503H368.923V36.8293L381.425 24.0664H386.489V36.4894H390L389.314 41.1503ZM380.739 36.4894V30.988L374.898 36.4894H380.739Z" fill="#3780C3"/>
<path d="M64.7776 34.9265C62.7337 34.5552 60.6713 34.2938 58.5994 34.1436C53.4434 33.7749 48.2612 34.0891 43.1875 35.0782C45.9185 38.1126 48.1245 40.5402 49.5598 42.1636C52.039 44.9583 58.5205 52.3077 60.9086 54.6928C63.0327 56.8169 64.0129 57.8547 64.468 58.3341C67.1839 61.1289 68.6889 62.6764 69.6418 62.3093C70.5946 61.9421 70.6462 59.6147 70.5824 58.1703C70.4429 55.1267 69.663 48.2598 64.7776 34.9265Z" fill="url(#paint0_linear_711_99)"/>
<path d="M35.2951 35.2938C36.7955 32.227 38.6831 29.3655 40.9119 26.7792C44.972 22.0788 47.2569 21.7056 47.8911 21.6206C49.9242 21.3718 51.6629 22.097 52.7189 22.6736C54.3999 23.7633 55.9947 24.9807 57.489 26.3149C60.3146 28.8249 62.7669 31.7258 64.7717 34.9297C54.9113 33.1449 44.7574 33.9308 35.2891 37.2116L35.2951 35.2938Z" fill="#F18919"/>
<path d="M34.943 5.80122C34.5093 8.22687 34.2296 10.6775 34.1055 13.1385C33.8656 18.03 34.2315 22.9324 35.1948 27.7342C37.4707 25.5089 39.8042 23.2735 42.1953 21.028C46.399 17.0711 50.5703 13.2933 54.7093 9.69441C56.8334 7.5703 57.8712 6.58714 58.3355 6.13501C61.1302 3.40401 62.6778 1.91107 62.3136 0.958252C61.9495 0.00543743 59.616 -0.0431136 58.1747 0.0175753C55.1432 0.135918 48.2763 0.91577 34.943 5.80122Z" fill="url(#paint1_linear_711_99)"/>
<path d="M35.3285 35.2715C32.2617 33.7711 29.4001 31.8835 26.8138 29.6547C22.1135 25.5947 21.7403 23.3097 21.6553 22.6755C21.4938 20.9958 21.862 19.3076 22.7082 17.8477C23.797 16.166 25.0144 14.5712 26.3496 13.0776C28.8595 10.252 31.7605 7.79967 34.9643 5.79492C33.1754 15.6551 33.9614 25.8101 37.2462 35.2776L35.3285 35.2715Z" fill="#5EC0C6"/>
<path d="M35.6837 64.7658C36.1355 62.2534 36.4233 59.7143 36.5454 57.1646C36.7655 52.4776 36.4232 47.7813 35.5259 43.1758C32.4914 45.9068 30.0639 48.1128 28.4435 49.5481C25.6336 52.0394 18.2993 58.5088 15.9143 60.8939C13.7902 63.018 12.7524 64.0012 12.2729 64.4533C9.47823 67.1691 7.93066 68.6772 8.2948 69.6118C8.67713 70.6071 10.9924 70.6162 12.4368 70.5555C15.4712 70.4311 22.3473 69.6482 35.6837 64.7658Z" fill="url(#paint2_linear_711_99)"/>
<path d="M5.81245 35.6537C8.03224 36.0556 10.2734 36.3291 12.5246 36.473C17.502 36.7825 22.4985 36.4562 27.3934 35.502C25.2794 33.1453 23.1553 30.7835 21.0211 28.4166C17.2462 24.2129 13.4744 20.0365 9.70564 15.8874C7.58153 13.7633 6.59837 12.7255 6.14624 12.2612C3.41524 9.46651 1.92229 7.91894 0.96948 8.28308C0.0166655 8.64721 -0.0440233 10.9807 0.0166655 12.4251C0.147146 15.4595 0.926998 22.3204 5.81245 35.6537Z" fill="url(#paint3_linear_711_99)"/>
<path d="M35.2949 35.2869C33.7946 38.3537 31.9069 41.2153 29.6782 43.8015C25.6181 48.5019 23.3332 48.8751 22.699 48.9601C20.6659 49.2089 18.9271 48.4837 17.8712 47.9071C16.1908 46.8164 14.5962 45.5991 13.101 44.2658C10.2746 41.7555 7.82217 38.8535 5.81836 35.648C11.1382 36.6118 16.5661 36.8314 21.9464 36.3004C26.4965 35.8506 30.9779 34.8668 35.298 33.3691L35.2949 35.2869Z" fill="#FCE155"/>
<path d="M35.3103 35.2843C38.3771 36.7846 41.2387 38.6723 43.825 40.901C48.5253 44.9611 48.8986 47.2461 48.9835 47.8802C49.2324 49.9133 48.5071 51.6521 47.9306 52.708C46.8399 54.3884 45.6226 55.983 44.2893 57.4782C41.779 60.3046 38.8769 62.757 35.6714 64.7608C36.6353 59.441 36.8548 54.0131 36.3238 48.6328C35.8741 44.0827 34.8902 39.6013 33.3926 35.2812L35.3103 35.2843Z" fill="#3780C3"/>
<path d="M35.295 43.1819C39.6557 43.1819 43.1906 39.6469 43.1906 35.2862C43.1906 30.9256 39.6557 27.3906 35.295 27.3906C30.9344 27.3906 27.3994 30.9256 27.3994 35.2862C27.3994 39.6469 30.9344 43.1819 35.295 43.1819Z" fill="#4364AD"/>
<defs>
<linearGradient id="paint0_linear_711_99" x1="56.891" y1="35.7852" x2="56.891" y2="64.1421" gradientUnits="userSpaceOnUse">
<stop stop-color="#E7651C"/>
<stop offset="0.21" stop-color="#E96C1B"/>
<stop offset="0.51" stop-color="#EF811A"/>
<stop offset="0.6" stop-color="#F18919"/>
<stop offset="1" stop-color="#F18919"/>
</linearGradient>
<linearGradient id="paint1_linear_711_99" x1="35.9292" y1="13.8577" x2="64.2648" y2="13.8577" gradientUnits="userSpaceOnUse">
<stop stop-color="#00959B"/>
<stop offset="0.14" stop-color="#169FA5"/>
<stop offset="0.42" stop-color="#4DB8BE"/>
<stop offset="0.5" stop-color="#5EC0C6"/>
<stop offset="1" stop-color="#5EC0C6"/>
</linearGradient>
<linearGradient id="paint2_linear_711_99" x1="32.3488" y1="56.8793" x2="3.99499" y2="56.8793" gradientUnits="userSpaceOnUse">
<stop stop-color="#2E64A2"/>
<stop offset="0.46" stop-color="#3780C3"/>
<stop offset="1" stop-color="#3780C3"/>
</linearGradient>
<linearGradient id="paint3_linear_711_99" x1="13.699" y1="33.1716" x2="13.699" y2="4.81471" gradientUnits="userSpaceOnUse">
<stop offset="0.08" stop-color="#FDC300"/>
<stop offset="0.5" stop-color="#FCD73A"/>
<stop offset="0.68" stop-color="#FCE155"/>
<stop offset="1" stop-color="#FCE155"/>
</linearGradient>
</defs>
</svg>
