<svg width="50" height="50" viewBox="0 0 50 50" fill="none" xmlns="http://www.w3.org/2000/svg">
<path d="M50 43.0556C50 46.9444 46.9444 50 43.0556 50H6.94444C3.05556 50 0 46.9444 0 43.0556V6.94444C0 3.05556 3.05556 0 6.94444 0H43.0556C46.9444 0 50 3.05556 50 6.94444V43.0556Z" fill="#FF9800"/>
<path d="M29.0277 33.888C31.1111 33.4714 33.0555 32.638 34.7222 31.5269C36.1111 30.6936 36.5277 28.888 35.6944 27.4991C34.8611 26.1102 33.0555 25.6936 31.6666 26.5269C27.6388 29.0269 22.3611 29.0269 18.3333 26.5269C16.9444 25.6936 15.1388 26.1102 14.3055 27.4991C13.4722 28.888 13.8888 30.6936 15.2777 31.5269C17.0833 32.638 19.0277 33.4714 20.9722 33.888L15.4166 39.4436C14.3055 40.5547 14.3055 42.3602 15.4166 43.6102C15.9722 44.1658 16.6666 44.4436 17.4999 44.4436C18.1944 44.4436 19.0277 44.1658 19.5833 43.6102L24.9999 38.1936L30.4166 43.6102C31.5277 44.7214 33.3333 44.7214 34.5833 43.6102C35.6944 42.4991 35.6944 40.6936 34.5833 39.4436L29.0277 33.888ZM24.9999 5.55469C19.5833 5.55469 15.2777 9.86024 15.2777 15.2769C15.2777 20.6936 19.5833 24.9991 24.9999 24.9991C30.4166 24.9991 34.7222 20.6936 34.7222 15.2769C34.7222 9.86024 30.4166 5.55469 24.9999 5.55469ZM24.9999 19.4436C22.6388 19.4436 20.8333 17.638 20.8333 15.2769C20.8333 12.9158 22.6388 11.1102 24.9999 11.1102C27.3611 11.1102 29.1666 12.9158 29.1666 15.2769C29.1666 17.638 27.3611 19.4436 24.9999 19.4436Z" fill="white"/>
</svg>
